<mxfile host="app.diagrams.net" modified="2024-06-03T12:56:00.764Z" agent="Mozilla/5.0 (Windows NT 10.0; Win64; x64) AppleWebKit/537.36 (KHTML, like Gecko) Chrome/125.0.0.0 Safari/537.36" etag="LTwUVIfzZqhI3ytaXEBb" version="24.4.13" type="github">
  <diagram name="第 1 页" id="L22qwdmEuYbZ5oZiKWjJ">
    <mxGraphModel dx="1018" dy="633" grid="0" gridSize="10" guides="1" tooltips="1" connect="1" arrows="1" fold="1" page="1" pageScale="1" pageWidth="827" pageHeight="1169" math="0" shadow="0">
      <root>
        <mxCell id="0" />
        <mxCell id="1" parent="0" />
        <mxCell id="D7lPciuclwaNCtSDacSN-29" value="云端扰动库" style="shape=datastore;whiteSpace=wrap;html=1;fillColor=#dae8fc;strokeColor=#6c8ebf;fontStyle=1;shadow=1;" parent="1" vertex="1">
          <mxGeometry x="420" y="460" width="80" height="60" as="geometry" />
        </mxCell>
        <mxCell id="D7lPciuclwaNCtSDacSN-28" value="本地扰动库" style="shape=datastore;whiteSpace=wrap;html=1;fillColor=#dae8fc;strokeColor=#6c8ebf;fontStyle=1;shadow=1;" parent="1" vertex="1">
          <mxGeometry x="260" y="460" width="80" height="60" as="geometry" />
        </mxCell>
        <mxCell id="D7lPciuclwaNCtSDacSN-52" value="" style="rounded=1;whiteSpace=wrap;html=1;fillColor=#FFF2CC;strokeColor=#FFF2CC;" parent="1" vertex="1">
          <mxGeometry x="230" y="330" width="300" height="100" as="geometry" />
        </mxCell>
        <mxCell id="D7lPciuclwaNCtSDacSN-49" value="" style="rounded=1;whiteSpace=wrap;html=1;fillColor=#FFE6CC;strokeColor=#FFE6CC;" parent="1" vertex="1">
          <mxGeometry x="170" y="550" width="420" height="100" as="geometry" />
        </mxCell>
        <mxCell id="D7lPciuclwaNCtSDacSN-13" value="音频合成器" style="rounded=1;whiteSpace=wrap;html=1;fillColor=#6C8EBF;strokeColor=#6C8EBF;shadow=1;fontColor=#FFFFFF;fontStyle=1" parent="1" vertex="1">
          <mxGeometry x="319.5" y="240" width="120" height="60" as="geometry" />
        </mxCell>
        <mxCell id="D7lPciuclwaNCtSDacSN-15" value="云端生成层" style="text;html=1;align=center;verticalAlign=middle;whiteSpace=wrap;rounded=0;fontStyle=1" parent="1" vertex="1">
          <mxGeometry x="51.5" y="580" width="75" height="40" as="geometry" />
        </mxCell>
        <mxCell id="D7lPciuclwaNCtSDacSN-16" value="双阶段生成模块" style="rounded=1;whiteSpace=wrap;html=1;fillColor=#D79B00;strokeColor=#D79B00;gradientColor=none;shadow=1;fontStyle=1;fontColor=#FFFFFF;" parent="1" vertex="1">
          <mxGeometry x="460.5" y="570" width="120" height="60" as="geometry" />
        </mxCell>
        <mxCell id="D7lPciuclwaNCtSDacSN-18" value="数据处理模块" style="rounded=1;whiteSpace=wrap;html=1;fillColor=#D79B00;strokeColor=#D79B00;gradientColor=none;shadow=1;fontStyle=1;fontColor=#FFFFFF;" parent="1" vertex="1">
          <mxGeometry x="180" y="610" width="120" height="30" as="geometry" />
        </mxCell>
        <mxCell id="D7lPciuclwaNCtSDacSN-19" value="特征反转模块" style="rounded=1;whiteSpace=wrap;html=1;fillColor=#D79B00;strokeColor=#D79B00;gradientColor=none;shadow=1;fontStyle=1;fontColor=#FFFFFF;" parent="1" vertex="1">
          <mxGeometry x="319.5" y="610" width="120" height="30" as="geometry" />
        </mxCell>
        <mxCell id="D7lPciuclwaNCtSDacSN-26" value="&lt;b&gt;物理I/O设备&lt;/b&gt;" style="rounded=1;whiteSpace=wrap;html=1;fillColor=#D5E8D4;strokeColor=#D5E8D4;" parent="1" vertex="1">
          <mxGeometry x="180" y="140" width="120" height="60" as="geometry" />
        </mxCell>
        <mxCell id="D7lPciuclwaNCtSDacSN-27" value="" style="rounded=1;whiteSpace=wrap;html=1;fillColor=#D5E8D4;strokeColor=#D5E8D4;" parent="1" vertex="1">
          <mxGeometry x="310" y="140" width="280" height="60" as="geometry" />
        </mxCell>
        <mxCell id="D7lPciuclwaNCtSDacSN-30" value="数据存储层" style="text;html=1;align=center;verticalAlign=middle;whiteSpace=wrap;rounded=0;fontStyle=1" parent="1" vertex="1">
          <mxGeometry x="51.5" y="470" width="76.5" height="40" as="geometry" />
        </mxCell>
        <mxCell id="D7lPciuclwaNCtSDacSN-31" value="音频防护层" style="text;html=1;align=center;verticalAlign=middle;whiteSpace=wrap;rounded=0;fontStyle=1" parent="1" vertex="1">
          <mxGeometry x="50" y="250" width="76.5" height="40" as="geometry" />
        </mxCell>
        <mxCell id="D7lPciuclwaNCtSDacSN-32" value="I/O设备层" style="text;html=1;align=center;verticalAlign=middle;whiteSpace=wrap;rounded=0;fontStyle=1" parent="1" vertex="1">
          <mxGeometry x="50" y="150" width="76.5" height="40" as="geometry" />
        </mxCell>
        <mxCell id="D7lPciuclwaNCtSDacSN-35" value="" style="endArrow=none;dashed=1;html=1;rounded=0;strokeWidth=2;" parent="1" edge="1">
          <mxGeometry width="50" height="50" relative="1" as="geometry">
            <mxPoint x="600" y="660" as="sourcePoint" />
            <mxPoint x="160" y="660" as="targetPoint" />
          </mxGeometry>
        </mxCell>
        <mxCell id="D7lPciuclwaNCtSDacSN-36" value="" style="endArrow=none;dashed=1;html=1;rounded=0;strokeWidth=2;" parent="1" edge="1">
          <mxGeometry width="50" height="50" relative="1" as="geometry">
            <mxPoint x="600" y="540" as="sourcePoint" />
            <mxPoint x="163.5" y="540" as="targetPoint" />
          </mxGeometry>
        </mxCell>
        <mxCell id="D7lPciuclwaNCtSDacSN-37" value="" style="endArrow=none;dashed=1;html=1;rounded=0;strokeWidth=2;" parent="1" edge="1">
          <mxGeometry width="50" height="50" relative="1" as="geometry">
            <mxPoint x="600.5" y="440" as="sourcePoint" />
            <mxPoint x="161" y="440" as="targetPoint" />
          </mxGeometry>
        </mxCell>
        <mxCell id="D7lPciuclwaNCtSDacSN-38" value="数据控制层" style="text;html=1;align=center;verticalAlign=middle;whiteSpace=wrap;rounded=0;fontStyle=1" parent="1" vertex="1">
          <mxGeometry x="50" y="360" width="76.5" height="40" as="geometry" />
        </mxCell>
        <mxCell id="D7lPciuclwaNCtSDacSN-39" value="" style="endArrow=none;dashed=1;html=1;rounded=0;strokeWidth=2;" parent="1" edge="1">
          <mxGeometry width="50" height="50" relative="1" as="geometry">
            <mxPoint x="600.5" y="320" as="sourcePoint" />
            <mxPoint x="161" y="320" as="targetPoint" />
          </mxGeometry>
        </mxCell>
        <mxCell id="D7lPciuclwaNCtSDacSN-41" value="" style="endArrow=none;dashed=1;html=1;rounded=0;strokeWidth=2;" parent="1" edge="1">
          <mxGeometry width="50" height="50" relative="1" as="geometry">
            <mxPoint x="599.75" y="120" as="sourcePoint" />
            <mxPoint x="160.25" y="120" as="targetPoint" />
          </mxGeometry>
        </mxCell>
        <mxCell id="D7lPciuclwaNCtSDacSN-46" value="扰动选择器" style="rounded=1;whiteSpace=wrap;html=1;fillColor=#D6B656;strokeColor=#D6B656;shadow=1;fontStyle=1;fontColor=#FFFFFF;" parent="1" vertex="1">
          <mxGeometry x="319.5" y="340" width="120" height="30" as="geometry" />
        </mxCell>
        <mxCell id="D7lPciuclwaNCtSDacSN-47" value="语音识别模块" style="rounded=1;whiteSpace=wrap;html=1;fillColor=#D79B00;strokeColor=#D79B00;gradientColor=none;shadow=1;fontStyle=1;fontColor=#FFFFFF;" parent="1" vertex="1">
          <mxGeometry x="180" y="560" width="120" height="30" as="geometry" />
        </mxCell>
        <mxCell id="D7lPciuclwaNCtSDacSN-48" value="扰动生成模块" style="rounded=1;whiteSpace=wrap;html=1;fillColor=#D79B00;strokeColor=#D79B00;gradientColor=none;shadow=1;fontStyle=1;fontColor=#FFFFFF;" parent="1" vertex="1">
          <mxGeometry x="319.5" y="560" width="120" height="30" as="geometry" />
        </mxCell>
        <mxCell id="D7lPciuclwaNCtSDacSN-50" value="本地缓存接口" style="rounded=1;whiteSpace=wrap;html=1;fillColor=#D6B656;strokeColor=#D6B656;shadow=1;fontStyle=1;fontColor=#FFFFFF;" parent="1" vertex="1">
          <mxGeometry x="245" y="390" width="120" height="30" as="geometry" />
        </mxCell>
        <mxCell id="D7lPciuclwaNCtSDacSN-51" value="云端请求接口" style="rounded=1;whiteSpace=wrap;html=1;fillColor=#D6B656;strokeColor=#D6B656;shadow=1;fontStyle=1;fontColor=#FFFFFF;" parent="1" vertex="1">
          <mxGeometry x="396.5" y="390" width="120" height="30" as="geometry" />
        </mxCell>
        <mxCell id="D7lPciuclwaNCtSDacSN-53" value="数据流分块模块" style="rounded=1;whiteSpace=wrap;html=1;fillColor=#6C8EBF;strokeColor=#6C8EBF;shadow=1;fontColor=#FFFFFF;fontStyle=1" parent="1" vertex="1">
          <mxGeometry x="180" y="240" width="120" height="60" as="geometry" />
        </mxCell>
        <mxCell id="D7lPciuclwaNCtSDacSN-55" value="数据流拼接模块" style="rounded=1;whiteSpace=wrap;html=1;fillColor=#6C8EBF;strokeColor=#6C8EBF;shadow=1;fontColor=#FFFFFF;fontStyle=1" parent="1" vertex="1">
          <mxGeometry x="459.5" y="240" width="120" height="60" as="geometry" />
        </mxCell>
        <mxCell id="D7lPciuclwaNCtSDacSN-56" value="" style="shape=singleArrow;direction=north;whiteSpace=wrap;html=1;arrowWidth=0.48571428571429465;arrowSize=0.3079374767485111;fillColor=#FFF2CC;strokeColor=#FFF2CC;" parent="1" vertex="1">
          <mxGeometry x="370" y="300" width="20" height="30" as="geometry" />
        </mxCell>
        <mxCell id="D7lPciuclwaNCtSDacSN-57" value="" style="shape=singleArrow;direction=north;whiteSpace=wrap;html=1;arrowWidth=0.48571428571429465;arrowSize=0.3079374767485111;fillColor=#FFF2CC;strokeColor=#FFF2CC;rotation=-180;" parent="1" vertex="1">
          <mxGeometry x="280" y="430" width="20" height="40" as="geometry" />
        </mxCell>
        <mxCell id="D7lPciuclwaNCtSDacSN-58" value="" style="shape=singleArrow;direction=north;whiteSpace=wrap;html=1;arrowWidth=0.48571428571429465;arrowSize=0.3079374767485111;fillColor=#DAE8FC;strokeColor=#DAE8FC;" parent="1" vertex="1">
          <mxGeometry x="300" y="430" width="20" height="40" as="geometry" />
        </mxCell>
        <mxCell id="D7lPciuclwaNCtSDacSN-59" value="" style="shape=singleArrow;direction=north;whiteSpace=wrap;html=1;arrowWidth=0.48571428571429465;arrowSize=0.3079374767485111;fillColor=#DAE8FC;strokeColor=#DAE8FC;" parent="1" vertex="1">
          <mxGeometry x="450" y="430" width="20" height="40" as="geometry" />
        </mxCell>
        <mxCell id="D7lPciuclwaNCtSDacSN-60" value="虚拟输入设备" style="rounded=1;whiteSpace=wrap;html=1;fillColor=#82B366;strokeColor=#82B366;shadow=1;fontStyle=1;align=center;verticalAlign=middle;fontFamily=Helvetica;fontSize=12;fontColor=#FFFFFF;" parent="1" vertex="1">
          <mxGeometry x="500" y="155" width="79.5" height="30" as="geometry" />
        </mxCell>
        <mxCell id="D7lPciuclwaNCtSDacSN-62" value="虚拟输出设备" style="rounded=1;whiteSpace=wrap;html=1;fillColor=#82B366;strokeColor=#82B366;shadow=1;fontStyle=1;align=center;verticalAlign=middle;fontFamily=Helvetica;fontSize=12;fontColor=#FFFFFF;" parent="1" vertex="1">
          <mxGeometry x="410" y="155" width="80" height="30" as="geometry" />
        </mxCell>
        <mxCell id="D7lPciuclwaNCtSDacSN-64" value="&lt;b&gt;虚拟I/O设备&lt;/b&gt;" style="text;html=1;align=center;verticalAlign=middle;whiteSpace=wrap;rounded=0;" parent="1" vertex="1">
          <mxGeometry x="320" y="155" width="80" height="30" as="geometry" />
        </mxCell>
        <mxCell id="D7lPciuclwaNCtSDacSN-65" value="" style="shape=singleArrow;direction=north;whiteSpace=wrap;html=1;arrowWidth=0.48571428571429465;arrowSize=0.3079374767485111;fillColor=#FFE6CC;strokeColor=#FFE6CC;" parent="1" vertex="1">
          <mxGeometry x="300" y="520" width="20" height="30" as="geometry" />
        </mxCell>
        <mxCell id="D7lPciuclwaNCtSDacSN-67" value="" style="shape=singleArrow;direction=north;whiteSpace=wrap;html=1;arrowWidth=0.48571428571429465;arrowSize=0.3079374767485111;fillColor=#FFE6CC;strokeColor=#FFE6CC;" parent="1" vertex="1">
          <mxGeometry x="459.5" y="520" width="20" height="30" as="geometry" />
        </mxCell>
        <mxCell id="D7lPciuclwaNCtSDacSN-69" value="" style="shape=singleArrow;direction=north;whiteSpace=wrap;html=1;arrowWidth=0.48571428571429465;arrowSize=0.3079374767485111;fillColor=#DAE8FC;strokeColor=#DAE8FC;rotation=-180;align=center;verticalAlign=middle;fontFamily=Helvetica;fontSize=12;fontColor=default;" parent="1" vertex="1">
          <mxGeometry x="280" y="510" width="20" height="40" as="geometry" />
        </mxCell>
        <mxCell id="D7lPciuclwaNCtSDacSN-70" value="" style="shape=singleArrow;direction=north;whiteSpace=wrap;html=1;arrowWidth=0.48571428571429465;arrowSize=0.3079374767485111;fillColor=#DAE8FC;strokeColor=#DAE8FC;rotation=-180;align=center;verticalAlign=middle;fontFamily=Helvetica;fontSize=12;fontColor=default;" parent="1" vertex="1">
          <mxGeometry x="440.5" y="510" width="20" height="40" as="geometry" />
        </mxCell>
        <mxCell id="D7lPciuclwaNCtSDacSN-73" value="" style="endArrow=none;dashed=1;html=1;rounded=0;strokeWidth=2;" parent="1" source="D7lPciuclwaNCtSDacSN-76" edge="1">
          <mxGeometry width="50" height="50" relative="1" as="geometry">
            <mxPoint x="599.75" y="220" as="sourcePoint" />
            <mxPoint x="160" y="220" as="targetPoint" />
          </mxGeometry>
        </mxCell>
        <mxCell id="D7lPciuclwaNCtSDacSN-75" value="" style="endArrow=none;dashed=1;html=1;rounded=0;strokeWidth=2;" parent="1" target="D7lPciuclwaNCtSDacSN-74" edge="1">
          <mxGeometry width="50" height="50" relative="1" as="geometry">
            <mxPoint x="599.75" y="220" as="sourcePoint" />
            <mxPoint x="260" y="220" as="targetPoint" />
          </mxGeometry>
        </mxCell>
        <mxCell id="D7lPciuclwaNCtSDacSN-74" value="" style="shape=singleArrow;direction=north;whiteSpace=wrap;html=1;arrowWidth=0.48571428571429465;arrowSize=0.3079374767485111;fillColor=#6C8EBF;strokeColor=#6C8EBF;" parent="1" vertex="1">
          <mxGeometry x="510.5" y="200" width="20" height="40" as="geometry" />
        </mxCell>
        <mxCell id="D7lPciuclwaNCtSDacSN-77" value="" style="endArrow=none;dashed=1;html=1;rounded=0;strokeWidth=2;" parent="1" source="D7lPciuclwaNCtSDacSN-74" target="D7lPciuclwaNCtSDacSN-76" edge="1">
          <mxGeometry width="50" height="50" relative="1" as="geometry">
            <mxPoint x="511" y="220" as="sourcePoint" />
            <mxPoint x="160" y="220" as="targetPoint" />
          </mxGeometry>
        </mxCell>
        <mxCell id="D7lPciuclwaNCtSDacSN-76" value="" style="shape=singleArrow;direction=north;whiteSpace=wrap;html=1;arrowWidth=0.48571428571429465;arrowSize=0.3079374767485111;fillColor=#D5E8D4;strokeColor=#D5E8D4;rotation=-180;" parent="1" vertex="1">
          <mxGeometry x="230" y="200" width="20" height="40" as="geometry" />
        </mxCell>
      </root>
    </mxGraphModel>
  </diagram>
</mxfile>
